<svg id="Layer_1" data-name="Layer 1" xmlns="http://www.w3.org/2000/svg" viewBox="0 0 354.68 354.68"><defs><style>.cls-1{fill:#e5e5e5;}.cls-2{fill:none;stroke:#e5e5e5;stroke-miterlimit:10;stroke-width:28px;}</style></defs><title>aboutIcon_gray</title><path class="cls-1" d="M208.4,255.1c-.11-.52-.47-2.28-1.75-2.81-2.22-.94-4.74,2.9-11.38,7.82a38.8,38.8,0,0,1-11.46,6c-5,1.58-6.25.78-6.61.51-2.58-1.87-1.21-7.81-.56-10.54,3.83-15.94,11.07-40.29,12.84-46.2h0l14.05-52.67a32,32,0,0,0,1.2-10.29,19.34,19.34,0,0,0-6.56-14.3c-4.79-4.19-10.43-4.51-15.1-4.78a38,38,0,0,0-13.85,1.91c-3.8,1.18-7.87,3-13.92,7-1.76,1.17-26.95,18.24-23.57,25.7a3.3,3.3,0,0,0,1.65,1.71c3.62,1.47,7.68-6.66,17.93-11,2-.86,7.35-3.13,9.67-1,1,.92.95,3,1,4.89a16.32,16.32,0,0,1-.26,3.67C156.55,189.05,143,227.52,143,227.52c-1.56,4.41-2.71,7.65-4.16,12.38h0c-2.06,6.23-3.38,10.21-4.44,14.12a100.1,100.1,0,0,0-2.69,14.69,31.8,31.8,0,0,0-.09,4.09,21.68,21.68,0,0,0,.74,5.12,18.78,18.78,0,0,0,5.81,9.18c3.46,2.83,7.06,3.21,12.47,3.78a41.31,41.31,0,0,0,15-1.16,59.18,59.18,0,0,0,10-3.93c.57-.28,2.67-1.28,5.4-2.84a96.14,96.14,0,0,0,16.51-12c1.57-1.46,2.8-2.71,3.86-3.86a45.88,45.88,0,0,0,3.19-3.67C207,260.29,209,257.72,208.4,255.1Z" transform="translate(-1.19 -1.49)"/><ellipse class="cls-1" cx="189.99" cy="93.35" rx="23.24" ry="20.21" transform="translate(-2.53 182.44) rotate(-51.5)"/><circle class="cls-2" cx="177.34" cy="177.34" r="163.34"/></svg>