<svg id="Layer_1" data-name="Layer 1" xmlns="http://www.w3.org/2000/svg" viewBox="0 0 420.43 363.28"><defs><style>.cls-1{fill:none;}.cls-2{fill:#e5e5e5;}</style></defs><title>mapIcon_gray</title><path class="cls-1" d="M359.4,32.41H61C45.32,33.5,32.58,44.7,30,59.18V310.61c2.55,14.48,15.29,25.69,31,26.78H359.4c15.71-1.09,28.45-12.3,31-26.78V59.18C387.85,44.7,375.11,33.5,359.4,32.41ZM121.64,84.75a28.51,28.51,0,1,1-28.51,28.51A28.5,28.5,0,0,1,121.64,84.75ZM81.69,312.34,182.08,152.87l35.77,56.83-63,102.64ZM369.2,293.22h-.32c0,9-6.56,16.6-15.58,19.12h-192L295.37,93.7,369.2,214.05Z" transform="translate(0 -3.26)"/><path class="cls-2" d="M368.37,3.26H52.06A57.07,57.07,0,0,0,0,50.7V319.1a57.07,57.07,0,0,0,52.06,47.44H368.37a57.07,57.07,0,0,0,52.06-47.44V50.7A57.07,57.07,0,0,0,368.37,3.26Zm22,155.88V310.61c-2.55,14.48-15.29,25.69-31,26.78H61c-15.71-1.09-28.45-12.3-31-26.78V59.18C32.58,44.7,45.32,33.5,61,32.41H359.4c15.71,1.09,28.45,12.29,31,26.77Z" transform="translate(0 -3.26)"/><circle class="cls-2" cx="121.64" cy="113.26" r="28.51" transform="translate(-44.46 115.93) rotate(-45)"/><path class="cls-2" d="M161.26,312.34h192c9-2.52,15.58-10.12,15.58-19.12h.32V214.05L295.37,93.7Z" transform="translate(0 -3.26)"/><polygon class="cls-2" points="182.08 149.61 81.69 309.08 154.89 309.08 217.85 206.44 182.08 149.61"/></svg>