<svg id="Layer_1" data-name="Layer 1" xmlns="http://www.w3.org/2000/svg" viewBox="0 0 378.44 284.1"><defs><style>.cls-1{fill:none;}.cls-2{fill:#e5e5e5;}</style></defs><title>mailIcon_gray</title><path class="cls-1" d="M193,145.36A20.8,20.8,0,0,0,203,142.74l6.3-5,.21-.24,7.46-5.94s0,0,0,.06L354.46,21.86H31.39L182.64,142.58A20.84,20.84,0,0,0,193,145.36Z" transform="translate(-3.73 -3.25)"/><path class="cls-1" d="M205.68,163.74a20.81,20.81,0,0,1-24.78-.47l-.05.08L24.37,38.44V257.35L133.23,138.88l4.39,2.61h0l3.7,2.23L27.4,268.75H358.51L245,144.22l2.73-1.63-.06-.06,4.42-2.61L362.87,259.73V38.4L205.73,163.83Z" transform="translate(-3.73 -3.25)"/><path class="cls-2" d="M369.89,3.25H16A12.33,12.33,0,0,0,3.73,15.54V275.07A12.22,12.22,0,0,0,6.67,283a12.46,12.46,0,0,0,4.27,3.23A12.17,12.17,0,0,0,16,287.35H369.89a12,12,0,0,0,4-.7,12.51,12.51,0,0,0,4.58-2.85,12.23,12.23,0,0,0,3.66-8.73V15.54A12.32,12.32,0,0,0,369.89,3.25ZM354.46,21.86,217,131.6s0,0,0-.06l-7.46,5.94-.21.24-6.3,5a20.56,20.56,0,0,1-20.37-.16L31.39,21.86Zm8.41,28.25V259.73L252.13,139.92l-4.42,2.61.06.06L245,144.22,358.51,268.75H27.4l113.91-125-3.7-2.23h0l-4.39-2.61L24.37,257.35V38.44L180.85,163.35l.05-.08a20.81,20.81,0,0,0,24.78.47l0,.09L362.87,38.4Z" transform="translate(-3.73 -3.25)"/></svg>