<svg id="Layer_1" data-name="Layer 1" xmlns="http://www.w3.org/2000/svg" xmlns:xlink="http://www.w3.org/1999/xlink" viewBox="0 0 427.3 331.13"><defs><style>.cls-1{fill:none;}.cls-2{fill:#e5e5e5;}.cls-3{isolation:isolate;}.cls-4{clip-path:url(#clip-path);}</style><clipPath id="clip-path" transform="translate(-2.53 0)"><polygon class="cls-1" points="-2.45 331.13 45.5 138.05 387.03 138.05 434.98 331.13 -2.45 331.13"/></clipPath></defs><title>mapIcon_gray</title><path class="cls-2" d="M328.24,66.12s7,27-66.12,162.79C189,93.08,196,66.12,196,66.12a66.12,66.12,0,0,1,132.24,0Zm-31.6,0a34.53,34.53,0,1,0-34.52,34.53A34.51,34.51,0,0,0,296.64,66.12Z" transform="translate(-2.53 0)"/><g class="cls-3"><g class="cls-4"><path class="cls-2" d="M394,166,279.05,252.51l94.47,78.62h35.3a26,26,0,0,0,9.69-1.78,19.16,19.16,0,0,0,7.07-4.81,16.1,16.1,0,0,0,3.79-7,17.58,17.58,0,0,0-.1-8.46h.22L394,166" transform="translate(-2.53 0)"/><path class="cls-2" d="M366.79,138.05H330c-.63,2.93-1.53,6.39-2.82,10.46s-3,8.9-5.21,14.42-5,12-8.48,19.32c-3.52,7.46-7.75,15.91-12.83,25.49l85.76-62.23a23,23,0,0,0-3.91-3,28.69,28.69,0,0,0-4.72-2.3,32.33,32.33,0,0,0-5.3-1.48,31.17,31.17,0,0,0-5.65-.52l0-.12v0" transform="translate(-2.53 0)"/><polyline class="cls-2" points="196.18 214.06 20.98 330.87 21 330.87 20.96 331.07 20.94 331.13 213.72 331.13 331.64 331.13 196.18 214.06"/><path class="cls-2" d="M191.57,138.05H141.5l94.29,78.47c-7.48-11.09-13.73-20.79-19-29.3-5.12-8.32-9.28-15.54-12.68-21.82s-6-11.46-8-16-3.5-8.23-4.57-11.37" transform="translate(-2.53 0)"/><path class="cls-2" d="M110.78,138.05H65.92a31.27,31.27,0,0,0-8.13,1.09,29.1,29.1,0,0,0-7.15,3,21.78,21.78,0,0,0-5.47,4.47,13.6,13.6,0,0,0-3,5.55H42L3.1,308.81a17.27,17.27,0,0,0-.37,1.82,15.69,15.69,0,0,0-.17,1.79,17,17,0,0,0,0,1.75c0,.58.09,1.15.17,1.7L182.39,200l-71.61-61.9" transform="translate(-2.53 0)"/></g></g></svg>